<svg xmlns="http://www.w3.org/2000/svg" xmlns:xlink="http://www.w3.org/1999/xlink" width="165" zoomAndPan="magnify" viewBox="0 0 123.75 31.5" height="42" preserveAspectRatio="xMidYMid meet" version="1.0"><defs><g/><clipPath id="0abd283842"><path d="M 12.421875 9 L 27.925781 9 L 27.925781 22 L 12.421875 22 Z M 12.421875 9 " clip-rule="nonzero"/></clipPath></defs><g clip-path="url(#0abd283842)"><path fill="#ffffff" d="M 22.855469 13.023438 L 22.601562 13.664062 L 21.472656 16.511719 L 20.917969 17.910156 L 19.527344 21.421875 L 21.246094 21.421875 L 21.953125 19.511719 L 25.429688 19.511719 L 26.144531 21.421875 L 27.925781 21.421875 L 24.597656 13.023438 Z M 22.710938 17.480469 L 22.484375 18.089844 L 24.910156 18.089844 L 23.695312 14.84375 Z M 21.65625 12.546875 C 21.679688 12.480469 21.710938 12.417969 21.746094 12.359375 L 18.640625 12.359375 L 18.640625 9.792969 L 17.195312 9.792969 L 17.195312 12.359375 L 12.945312 12.359375 L 12.945312 13.664062 L 16.601562 13.664062 C 15.667969 15.402344 14.121094 17.074219 12.421875 17.957031 C 12.742188 18.234375 13.207031 18.746094 13.4375 19.085938 C 14.894531 18.203125 16.203125 16.796875 17.195312 15.191406 L 17.195312 20.128906 L 18.640625 20.128906 L 18.640625 15.136719 C 19.03125 15.753906 19.464844 16.34375 19.933594 16.886719 L 20.484375 15.5 C 19.984375 14.917969 19.542969 14.292969 19.1875 13.664062 L 21.210938 13.664062 Z M 21.65625 12.546875 " fill-opacity="1" fill-rule="evenodd"/></g><path fill="#ffffff" d="M 105.707031 14.601562 C 105.835938 14.601562 105.902344 14.761719 105.808594 14.851562 L 102.757812 17.902344 C 102.644531 18.019531 102.460938 18.019531 102.347656 17.902344 L 99.296875 14.851562 C 99.203125 14.761719 99.269531 14.601562 99.398438 14.601562 Z M 105.707031 14.601562 " fill-opacity="1" fill-rule="evenodd"/><g fill="#ffffff" fill-opacity="1"><g transform="translate(35.799913, 21.248603)"><g><path d="M 1.28125 0 L 1.28125 -10.765625 L 9.453125 -10.765625 L 9.453125 -9.578125 L 2.75 -9.578125 L 2.75 -6.125 L 9 -6.125 L 9 -4.953125 L 2.75 -4.953125 L 2.75 -1.1875 L 9.765625 -1.1875 L 9.765625 0 Z M 1.28125 0 "/></g></g><g transform="translate(46.243528, 21.248603)"><g><path d="M 6.3125 0 L 6.3125 -5.25 C 6.3125 -5.789062 6.253906 -6.210938 6.140625 -6.515625 C 6.035156 -6.816406 5.863281 -7.03125 5.625 -7.15625 C 5.394531 -7.289062 5.054688 -7.359375 4.609375 -7.359375 C 3.941406 -7.359375 3.414062 -7.128906 3.03125 -6.671875 C 2.65625 -6.222656 2.46875 -5.597656 2.46875 -4.796875 L 2.46875 0 L 1.078125 0 L 1.078125 -6.5 C 1.078125 -7.46875 1.066406 -8.054688 1.046875 -8.265625 L 2.34375 -8.265625 C 2.34375 -8.242188 2.34375 -8.175781 2.34375 -8.0625 C 2.351562 -7.945312 2.363281 -7.816406 2.375 -7.671875 C 2.382812 -7.535156 2.394531 -7.265625 2.40625 -6.859375 L 2.421875 -6.859375 C 2.734375 -7.429688 3.097656 -7.832031 3.515625 -8.0625 C 3.929688 -8.300781 4.445312 -8.421875 5.0625 -8.421875 C 5.96875 -8.421875 6.628906 -8.195312 7.046875 -7.75 C 7.472656 -7.300781 7.6875 -6.554688 7.6875 -5.515625 L 7.6875 0 Z M 6.3125 0 "/></g></g><g transform="translate(54.951637, 21.248603)"><g><path d="M 4.1875 3.25 C 3.289062 3.25 2.570312 3.070312 2.03125 2.71875 C 1.5 2.363281 1.15625 1.859375 1 1.203125 L 2.390625 1.015625 C 2.472656 1.390625 2.671875 1.679688 2.984375 1.890625 C 3.304688 2.097656 3.722656 2.203125 4.234375 2.203125 C 5.597656 2.203125 6.28125 1.398438 6.28125 -0.203125 L 6.28125 -1.53125 L 6.265625 -1.53125 C 6.003906 -1 5.644531 -0.597656 5.1875 -0.328125 C 4.738281 -0.0664062 4.210938 0.0625 3.609375 0.0625 C 2.597656 0.0625 1.851562 -0.269531 1.375 -0.9375 C 0.894531 -1.613281 0.65625 -2.675781 0.65625 -4.125 C 0.65625 -5.582031 0.910156 -6.660156 1.421875 -7.359375 C 1.929688 -8.054688 2.710938 -8.40625 3.765625 -8.40625 C 4.347656 -8.40625 4.851562 -8.269531 5.28125 -8 C 5.71875 -7.726562 6.050781 -7.347656 6.28125 -6.859375 L 6.296875 -6.859375 C 6.296875 -7.015625 6.304688 -7.28125 6.328125 -7.65625 C 6.347656 -8.03125 6.367188 -8.234375 6.390625 -8.265625 L 7.703125 -8.265625 C 7.671875 -7.992188 7.65625 -7.425781 7.65625 -6.5625 L 7.65625 -0.234375 C 7.65625 2.085938 6.5 3.25 4.1875 3.25 Z M 6.28125 -4.140625 C 6.28125 -4.804688 6.1875 -5.382812 6 -5.875 C 5.820312 -6.363281 5.566406 -6.734375 5.234375 -6.984375 C 4.898438 -7.242188 4.519531 -7.375 4.09375 -7.375 C 3.394531 -7.375 2.882812 -7.117188 2.5625 -6.609375 C 2.238281 -6.097656 2.078125 -5.273438 2.078125 -4.140625 C 2.078125 -3.003906 2.226562 -2.1875 2.53125 -1.6875 C 2.832031 -1.195312 3.347656 -0.953125 4.078125 -0.953125 C 4.503906 -0.953125 4.882812 -1.078125 5.21875 -1.328125 C 5.5625 -1.585938 5.820312 -1.957031 6 -2.4375 C 6.1875 -2.914062 6.28125 -3.484375 6.28125 -4.140625 Z M 6.28125 -4.140625 "/></g></g><g transform="translate(63.659746, 21.248603)"><g><path d="M 1.0625 0 L 1.0625 -11.34375 L 2.4375 -11.34375 L 2.4375 0 Z M 1.0625 0 "/></g></g><g transform="translate(67.138402, 21.248603)"><g><path d="M 1.046875 -10.03125 L 1.046875 -11.34375 L 2.421875 -11.34375 L 2.421875 -10.03125 Z M 1.046875 0 L 1.046875 -8.265625 L 2.421875 -8.265625 L 2.421875 0 Z M 1.046875 0 "/></g></g><g transform="translate(70.617059, 21.248603)"><g><path d="M 7.265625 -2.28125 C 7.265625 -1.5 6.96875 -0.894531 6.375 -0.46875 C 5.789062 -0.0507812 4.96875 0.15625 3.90625 0.15625 C 2.875 0.15625 2.078125 -0.0078125 1.515625 -0.34375 C 0.960938 -0.6875 0.601562 -1.21875 0.4375 -1.9375 L 1.65625 -2.171875 C 1.769531 -1.734375 2.007812 -1.410156 2.375 -1.203125 C 2.738281 -0.992188 3.25 -0.890625 3.90625 -0.890625 C 4.601562 -0.890625 5.113281 -0.992188 5.4375 -1.203125 C 5.757812 -1.421875 5.921875 -1.742188 5.921875 -2.171875 C 5.921875 -2.503906 5.804688 -2.769531 5.578125 -2.96875 C 5.359375 -3.175781 5 -3.347656 4.5 -3.484375 L 3.515625 -3.734375 C 2.722656 -3.941406 2.160156 -4.140625 1.828125 -4.328125 C 1.492188 -4.523438 1.234375 -4.765625 1.046875 -5.046875 C 0.859375 -5.328125 0.765625 -5.671875 0.765625 -6.078125 C 0.765625 -6.835938 1.03125 -7.414062 1.5625 -7.8125 C 2.101562 -8.207031 2.890625 -8.40625 3.921875 -8.40625 C 4.835938 -8.40625 5.5625 -8.242188 6.09375 -7.921875 C 6.632812 -7.597656 6.972656 -7.082031 7.109375 -6.375 L 5.875 -6.21875 C 5.800781 -6.582031 5.597656 -6.863281 5.265625 -7.0625 C 4.929688 -7.257812 4.484375 -7.359375 3.921875 -7.359375 C 3.296875 -7.359375 2.835938 -7.265625 2.546875 -7.078125 C 2.253906 -6.890625 2.109375 -6.601562 2.109375 -6.21875 C 2.109375 -5.988281 2.164062 -5.796875 2.28125 -5.640625 C 2.40625 -5.484375 2.585938 -5.351562 2.828125 -5.25 C 3.066406 -5.144531 3.570312 -5 4.34375 -4.8125 C 5.070312 -4.625 5.597656 -4.453125 5.921875 -4.296875 C 6.242188 -4.140625 6.492188 -3.96875 6.671875 -3.78125 C 6.859375 -3.59375 7.003906 -3.375 7.109375 -3.125 C 7.210938 -2.882812 7.265625 -2.601562 7.265625 -2.28125 Z M 7.265625 -2.28125 "/></g></g><g transform="translate(78.445947, 21.248603)"><g><path d="M 2.421875 -6.859375 C 2.710938 -7.398438 3.066406 -7.796875 3.484375 -8.046875 C 3.898438 -8.296875 4.425781 -8.421875 5.0625 -8.421875 C 5.957031 -8.421875 6.617188 -8.195312 7.046875 -7.75 C 7.472656 -7.3125 7.6875 -6.566406 7.6875 -5.515625 L 7.6875 0 L 6.3125 0 L 6.3125 -5.25 C 6.3125 -5.820312 6.253906 -6.25 6.140625 -6.53125 C 6.035156 -6.820312 5.859375 -7.03125 5.609375 -7.15625 C 5.367188 -7.289062 5.035156 -7.359375 4.609375 -7.359375 C 3.953125 -7.359375 3.429688 -7.132812 3.046875 -6.6875 C 2.660156 -6.238281 2.46875 -5.632812 2.46875 -4.875 L 2.46875 0 L 1.078125 0 L 1.078125 -11.34375 L 2.46875 -11.34375 L 2.46875 -8.390625 C 2.46875 -8.078125 2.457031 -7.753906 2.4375 -7.421875 C 2.414062 -7.097656 2.40625 -6.910156 2.40625 -6.859375 Z M 2.421875 -6.859375 "/></g></g></g></svg>