<svg xmlns="http://www.w3.org/2000/svg" xmlns:xlink="http://www.w3.org/1999/xlink" width="102" zoomAndPan="magnify" viewBox="0 0 76.5 31.5" height="42" preserveAspectRatio="xMidYMid meet" version="1.0"><defs><g/><clipPath id="2bff678097"><path d="M 0.351562 0 L 75.65625 0 L 75.65625 31.007812 L 0.351562 31.007812 Z M 0.351562 0 " clip-rule="nonzero"/></clipPath><clipPath id="4eee9ff82d"><path d="M 0.351562 0 L 75.65625 0 L 75.65625 31.007812 L 0.351562 31.007812 Z M 0.351562 0 " clip-rule="nonzero"/></clipPath><clipPath id="6731e10af1"><path d="M 3.277344 -1.121094 L 72.730469 -1.121094 C 75.585938 -1.121094 77.898438 1.195312 77.898438 4.046875 L 77.898438 26.960938 C 77.898438 29.8125 75.585938 32.128906 72.730469 32.128906 L 3.277344 32.128906 C 0.421875 32.128906 -1.890625 29.8125 -1.890625 26.960938 L -1.890625 4.046875 C -1.890625 1.195312 0.421875 -1.121094 3.277344 -1.121094 Z M 3.277344 -1.121094 " clip-rule="nonzero"/></clipPath></defs><g clip-path="url(#2bff678097)"><path fill="#ffffff" d="M 0.351562 0 L 75.65625 0 L 75.65625 31.007812 L 0.351562 31.007812 Z M 0.351562 0 " fill-opacity="1" fill-rule="nonzero"/><path fill="#ffffff" d="M 0.351562 0 L 75.65625 0 L 75.65625 31.007812 L 0.351562 31.007812 Z M 0.351562 0 " fill-opacity="1" fill-rule="nonzero"/></g><g clip-path="url(#4eee9ff82d)"><g clip-path="url(#6731e10af1)"><rect x="-7.65" width="91.8" fill="#e50914" y="-3.15" height="37.8" fill-opacity="1"/></g></g><g fill="#ffffff" fill-opacity="1"><g transform="translate(14.44259, 20.174928)"><g><path d="M 9.40625 -2.875 C 9.40625 -1.914062 9.03125 -1.171875 8.28125 -0.640625 C 7.53125 -0.117188 6.46875 0.140625 5.09375 0.140625 C 2.5625 0.140625 1.09375 -0.738281 0.6875 -2.5 L 2.0625 -2.765625 C 2.21875 -2.140625 2.550781 -1.679688 3.0625 -1.390625 C 3.570312 -1.097656 4.269531 -0.953125 5.15625 -0.953125 C 6.0625 -0.953125 6.757812 -1.109375 7.25 -1.421875 C 7.75 -1.734375 8 -2.191406 8 -2.796875 C 8 -3.140625 7.921875 -3.414062 7.765625 -3.625 C 7.617188 -3.84375 7.40625 -4.019531 7.125 -4.15625 C 6.84375 -4.289062 6.503906 -4.40625 6.109375 -4.5 C 5.722656 -4.59375 5.289062 -4.695312 4.8125 -4.8125 C 3.988281 -4.988281 3.363281 -5.164062 2.9375 -5.34375 C 2.519531 -5.53125 2.1875 -5.734375 1.9375 -5.953125 C 1.6875 -6.179688 1.492188 -6.445312 1.359375 -6.75 C 1.234375 -7.050781 1.171875 -7.394531 1.171875 -7.78125 C 1.171875 -8.675781 1.507812 -9.363281 2.1875 -9.84375 C 2.875 -10.332031 3.851562 -10.578125 5.125 -10.578125 C 6.3125 -10.578125 7.21875 -10.394531 7.84375 -10.03125 C 8.46875 -9.664062 8.90625 -9.046875 9.15625 -8.171875 L 7.765625 -7.9375 C 7.617188 -8.488281 7.328125 -8.882812 6.890625 -9.125 C 6.460938 -9.375 5.867188 -9.5 5.109375 -9.5 C 4.273438 -9.5 3.640625 -9.359375 3.203125 -9.078125 C 2.765625 -8.804688 2.546875 -8.398438 2.546875 -7.859375 C 2.546875 -7.535156 2.628906 -7.269531 2.796875 -7.0625 C 2.972656 -6.851562 3.21875 -6.675781 3.53125 -6.53125 C 3.851562 -6.382812 4.492188 -6.207031 5.453125 -6 C 5.773438 -5.925781 6.09375 -5.847656 6.40625 -5.765625 C 6.726562 -5.691406 7.035156 -5.601562 7.328125 -5.5 C 7.617188 -5.394531 7.890625 -5.269531 8.140625 -5.125 C 8.398438 -4.976562 8.617188 -4.800781 8.796875 -4.59375 C 8.984375 -4.382812 9.128906 -4.140625 9.234375 -3.859375 C 9.347656 -3.578125 9.40625 -3.25 9.40625 -2.875 Z M 9.40625 -2.875 "/></g></g><g transform="translate(24.537341, 20.174928)"><g><path d="M 1.015625 -9.703125 L 1.015625 -10.96875 L 2.34375 -10.96875 L 2.34375 -9.703125 Z M 1.015625 0 L 1.015625 -8 L 2.34375 -8 L 2.34375 0 Z M 1.015625 0 "/></g></g><g transform="translate(27.899794, 20.174928)"><g><path d="M 4.046875 3.140625 C 3.179688 3.140625 2.488281 2.96875 1.96875 2.625 C 1.445312 2.28125 1.113281 1.796875 0.96875 1.171875 L 2.3125 0.96875 C 2.394531 1.34375 2.585938 1.628906 2.890625 1.828125 C 3.191406 2.023438 3.59375 2.125 4.09375 2.125 C 5.414062 2.125 6.078125 1.347656 6.078125 -0.203125 L 6.078125 -1.484375 L 6.0625 -1.484375 C 5.8125 -0.972656 5.46875 -0.585938 5.03125 -0.328125 C 4.59375 -0.0664062 4.078125 0.0625 3.484375 0.0625 C 2.503906 0.0625 1.785156 -0.257812 1.328125 -0.90625 C 0.867188 -1.5625 0.640625 -2.585938 0.640625 -3.984375 C 0.640625 -5.398438 0.882812 -6.441406 1.375 -7.109375 C 1.875 -7.785156 2.628906 -8.125 3.640625 -8.125 C 4.203125 -8.125 4.691406 -7.992188 5.109375 -7.734375 C 5.523438 -7.472656 5.847656 -7.101562 6.078125 -6.625 L 6.09375 -6.625 C 6.09375 -6.78125 6.101562 -7.039062 6.125 -7.40625 C 6.144531 -7.769531 6.164062 -7.96875 6.1875 -8 L 7.4375 -8 C 7.414062 -7.726562 7.40625 -7.175781 7.40625 -6.34375 L 7.40625 -0.234375 C 7.40625 2.015625 6.285156 3.140625 4.046875 3.140625 Z M 6.078125 -4 C 6.078125 -4.644531 5.988281 -5.203125 5.8125 -5.671875 C 5.632812 -6.148438 5.382812 -6.515625 5.0625 -6.765625 C 4.738281 -7.015625 4.375 -7.140625 3.96875 -7.140625 C 3.28125 -7.140625 2.78125 -6.890625 2.46875 -6.390625 C 2.164062 -5.898438 2.015625 -5.101562 2.015625 -4 C 2.015625 -2.90625 2.160156 -2.117188 2.453125 -1.640625 C 2.742188 -1.160156 3.238281 -0.921875 3.9375 -0.921875 C 4.351562 -0.921875 4.722656 -1.039062 5.046875 -1.28125 C 5.378906 -1.53125 5.632812 -1.882812 5.8125 -2.34375 C 5.988281 -2.8125 6.078125 -3.363281 6.078125 -4 Z M 6.078125 -4 "/></g></g><g transform="translate(36.317013, 20.174928)"><g><path d="M 6.09375 0 L 6.09375 -5.078125 C 6.09375 -5.597656 6.039062 -6.003906 5.9375 -6.296875 C 5.832031 -6.585938 5.664062 -6.796875 5.4375 -6.921875 C 5.21875 -7.054688 4.890625 -7.125 4.453125 -7.125 C 3.804688 -7.125 3.296875 -6.898438 2.921875 -6.453125 C 2.554688 -6.015625 2.375 -5.410156 2.375 -4.640625 L 2.375 0 L 1.046875 0 L 1.046875 -6.296875 C 1.046875 -7.222656 1.03125 -7.789062 1 -8 L 2.265625 -8 C 2.265625 -7.976562 2.265625 -7.910156 2.265625 -7.796875 C 2.273438 -7.691406 2.285156 -7.566406 2.296875 -7.421875 C 2.304688 -7.285156 2.316406 -7.019531 2.328125 -6.625 L 2.34375 -6.625 C 2.644531 -7.175781 2.992188 -7.566406 3.390625 -7.796875 C 3.796875 -8.023438 4.300781 -8.140625 4.90625 -8.140625 C 5.78125 -8.140625 6.421875 -7.921875 6.828125 -7.484375 C 7.234375 -7.054688 7.4375 -6.335938 7.4375 -5.328125 L 7.4375 0 Z M 6.09375 0 "/></g></g><g transform="translate(44.734232, 20.174928)"><g/></g><g transform="translate(48.939146, 20.174928)"><g><path d="M 1.390625 0 L 1.390625 -10.421875 L 2.8125 -10.421875 L 2.8125 0 Z M 1.390625 0 "/></g></g><g transform="translate(53.144061, 20.174928)"><g><path d="M 6.09375 0 L 6.09375 -5.078125 C 6.09375 -5.597656 6.039062 -6.003906 5.9375 -6.296875 C 5.832031 -6.585938 5.664062 -6.796875 5.4375 -6.921875 C 5.21875 -7.054688 4.890625 -7.125 4.453125 -7.125 C 3.804688 -7.125 3.296875 -6.898438 2.921875 -6.453125 C 2.554688 -6.015625 2.375 -5.410156 2.375 -4.640625 L 2.375 0 L 1.046875 0 L 1.046875 -6.296875 C 1.046875 -7.222656 1.03125 -7.789062 1 -8 L 2.265625 -8 C 2.265625 -7.976562 2.265625 -7.910156 2.265625 -7.796875 C 2.273438 -7.691406 2.285156 -7.566406 2.296875 -7.421875 C 2.304688 -7.285156 2.316406 -7.019531 2.328125 -6.625 L 2.34375 -6.625 C 2.644531 -7.175781 2.992188 -7.566406 3.390625 -7.796875 C 3.796875 -8.023438 4.300781 -8.140625 4.90625 -8.140625 C 5.78125 -8.140625 6.421875 -7.921875 6.828125 -7.484375 C 7.234375 -7.054688 7.4375 -6.335938 7.4375 -5.328125 L 7.4375 0 Z M 6.09375 0 "/></g></g></g></svg>